<?xml version="1.0" standalone="no"?>
<!DOCTYPE svg PUBLIC "-//W3C//DTD SVG 20010904//EN"
 "http://www.w3.org/TR/2001/REC-SVG-20010904/DTD/svg10.dtd">
<svg version="1.0" xmlns="http://www.w3.org/2000/svg"
 width="1620.000000pt" height="1620.000000pt" viewBox="0 0 1620.000000 1620.000000"
 preserveAspectRatio="xMidYMid meet">
<metadata>
Created by potrace 1.14, written by Peter Selinger 2001-2017
</metadata>
<g transform="translate(0.000000,1620.000000) scale(0.100000,-0.100000)"
fill="#000000" stroke="none">
<path d="M7942 14126 c-62 -35 -118 -67 -125 -70 -6 -4 -21 -12 -32 -19 -11
-7 -71 -42 -133 -77 -62 -36 -125 -72 -140 -81 -58 -34 -719 -414 -757 -434
-22 -12 -78 -45 -125 -72 -71 -42 -321 -186 -459 -265 -19 -11 -127 -73 -240
-138 -114 -65 -221 -126 -238 -136 -18 -11 -177 -102 -354 -204 -333 -192
-357 -206 -474 -273 -38 -22 -113 -64 -165 -95 -126 -72 -92 -53 -680 -390
-283 -162 -532 -306 -552 -319 -21 -12 -40 -23 -43 -23 -3 0 -22 -11 -43 -23
-20 -13 -57 -35 -82 -49 -25 -14 -88 -50 -140 -80 -52 -30 -219 -126 -370
-213 -151 -87 -450 -260 -665 -383 -214 -124 -409 -235 -432 -247 -23 -12 -48
-26 -55 -32 -7 -6 -38 -24 -68 -40 -30 -16 -92 -51 -137 -78 l-83 -48 0 -503
c0 -277 2 -504 4 -504 2 0 73 40 158 88 285 165 563 325 597 344 74 42 448
257 481 277 19 11 47 27 61 35 l26 15 0 -3202 c-1 -1761 2 -3231 6 -3267 16
-143 30 -209 69 -320 65 -182 161 -337 296 -476 100 -103 117 -118 217 -184
128 -86 300 -161 435 -189 96 -20 104 -21 180 -27 104 -9 2649 -9 2735 0 122
13 180 24 270 53 153 48 348 155 456 250 248 218 393 477 454 813 9 52 16 480
7 481 -10 0 -822 1 -848 0 -20 -1 -21 -6 -22 -170 -1 -93 -6 -190 -12 -216
-36 -162 -178 -299 -343 -333 -61 -12 -2597 -13 -2664 -1 -168 32 -321 184
-351 350 -5 25 -8 536 -7 1135 2 1064 2 1090 22 1144 50 138 148 234 284 280
l64 22 1316 0 c1452 0 1368 4 1474 -63 104 -65 167 -148 200 -262 13 -45 17
-98 16 -233 0 -96 3 -175 7 -175 4 -1 199 -2 435 -3 374 -1 428 1 432 14 6 22
-2 439 -9 475 -4 17 -11 55 -17 85 -17 83 -65 222 -105 303 -197 394 -578 667
-1014 725 -75 10 -2758 9 -2840 -1 -67 -8 -209 -41 -246 -56 l-21 -9 1 1780 1
1781 160 92 c88 51 284 163 435 250 151 87 291 167 310 178 19 11 134 77 255
147 260 150 620 357 1135 653 206 118 425 244 486 279 61 36 117 68 125 71 8
4 28 16 45 26 42 26 778 449 829 477 40 21 375 215 597 344 l118 69 42 -23
c24 -13 142 -81 263 -151 121 -70 245 -141 275 -157 30 -17 60 -34 65 -38 6
-4 30 -19 55 -32 25 -14 142 -81 261 -150 118 -68 222 -128 230 -131 8 -4 28
-15 44 -26 17 -10 46 -27 65 -38 19 -11 170 -98 335 -193 165 -95 320 -184
345 -198 25 -13 70 -39 100 -57 30 -18 73 -43 95 -55 22 -12 146 -83 275 -158
221 -127 438 -252 540 -310 25 -14 77 -44 115 -67 39 -22 77 -44 85 -48 8 -4
30 -16 49 -28 34 -20 274 -158 341 -196 48 -27 142 -82 160 -93 8 -6 119 -69
245 -141 361 -207 559 -321 571 -330 13 -10 16 -3519 3 -3519 -4 0 -49 11
-101 25 -51 13 -120 28 -153 32 -77 10 -2770 11 -2851 0 -85 -10 -236 -51
-322 -86 -344 -142 -616 -426 -739 -771 -63 -176 -75 -252 -79 -515 l-3 -230
437 0 437 0 1 166 c2 180 12 246 50 326 31 67 124 163 189 195 102 51 66 50
1463 50 l1307 0 63 -21 c137 -47 237 -144 288 -282 15 -40 17 -152 19 -1134 3
-1186 3 -1171 -53 -1273 -59 -105 -169 -188 -291 -216 -84 -20 -2602 -21
-2686 -1 -164 38 -297 170 -335 333 -7 29 -12 125 -13 217 -1 160 -1 165 -21
166 -30 0 -829 1 -843 0 -8 -1 -11 -59 -9 -224 4 -241 20 -352 72 -499 29 -81
98 -224 120 -249 8 -8 14 -19 14 -23 0 -4 19 -33 42 -64 227 -307 568 -502
938 -538 95 -9 2663 -9 2750 0 281 29 510 126 727 308 221 185 368 430 438
733 9 39 20 138 23 220 4 83 6 1548 5 3258 -1 1709 0 3107 1 3107 2 0 70 -39
152 -86 82 -48 174 -100 204 -117 30 -16 60 -33 65 -37 6 -4 102 -61 215 -125
113 -65 294 -169 403 -232 109 -63 204 -116 211 -119 10 -4 13 90 13 495 0
448 -1 502 -16 514 -9 8 -52 34 -96 59 -44 24 -188 107 -320 183 -132 76 -256
147 -275 157 -19 11 -60 35 -90 53 -30 18 -75 44 -100 58 -25 13 -88 49 -140
79 -236 136 -516 297 -635 366 -71 41 -150 86 -175 100 -25 14 -141 81 -258
149 -118 67 -216 123 -218 123 -2 0 -21 11 -42 24 -21 13 -143 84 -272 158
-129 74 -259 149 -288 167 -29 17 -55 31 -58 31 -3 0 -18 8 -32 18 -15 11 -52
32 -82 49 -30 17 -111 63 -180 103 -69 40 -141 81 -160 92 -85 49 -518 298
-550 316 -19 12 -62 36 -95 55 -33 18 -167 95 -297 170 -131 75 -252 145 -270
156 -101 57 -648 372 -793 456 -93 54 -190 109 -215 123 -25 14 -97 55 -160
92 -63 37 -162 94 -220 127 -58 33 -229 131 -380 218 -151 86 -278 159 -281
161 -3 2 -56 -26 -117 -60z"/>
<path d="M7059 11205 c-1 -12 -1 -795 0 -811 1 -7 125 -11 416 -11 l415 0 0
416 0 416 -415 0 c-270 0 -415 -3 -416 -10z"/>
<path d="M8221 11210 c-3 -3 -7 -189 -6 -415 l0 -410 415 0 415 0 0 415 0 415
-408 0 c-225 0 -412 -2 -416 -5z"/>
<path d="M7059 10123 c-1 -12 -1 -775 0 -803 l1 -25 402 2 c222 1 409 2 416 2
9 1 12 91 12 416 l0 415 -415 0 c-228 0 -415 -3 -416 -7z"/>
<path d="M8215 9721 c0 -225 3 -413 8 -417 5 -5 700 -10 809 -5 15 1 16 35 17
416 l0 415 -417 0 -417 0 0 -409z"/>
<path d="M5440 5191 c-74 -23 -136 -76 -172 -149 -22 -44 -23 -60 -25 -262 -2
-255 6 -297 72 -363 22 -23 63 -53 90 -67 l49 -25 2625 0 c2085 1 2634 3 2663
13 58 20 121 75 153 133 l30 54 3 220 c3 203 2 224 -17 275 -23 62 -75 121
-135 153 l-41 22 -2635 2 c-1449 1 -2646 -2 -2660 -6z"/>
</g>
</svg>
